<?xml version="1.0" encoding="utf-8"?>
<!-- Generator: Adobe Illustrator 27.5.0, SVG Export Plug-In . SVG Version: 6.00 Build 0)  -->
<svg version="1.1" xmlns="http://www.w3.org/2000/svg" xmlns:xlink="http://www.w3.org/1999/xlink" x="0px" y="0px"
	 viewBox="0 0 500 500" style="enable-background:new 0 0 500 500;" xml:space="preserve">
<g id="BACKGROUND">
	<radialGradient id="SVGID_1_" cx="250" cy="250" r="329.67" gradientUnits="userSpaceOnUse">
		<stop  offset="0" style="stop-color:#FFFFFF"/>
		<stop  offset="0.2661" style="stop-color:#FCFCFD"/>
		<stop  offset="0.4776" style="stop-color:#F2F4F5"/>
		<stop  offset="0.6703" style="stop-color:#E1E6E9"/>
		<stop  offset="0.8508" style="stop-color:#CAD3D8"/>
		<stop  offset="1" style="stop-color:#B0BEC5"/>
	</radialGradient>
	<rect style="fill:url(#SVGID_1_);" width="500" height="500"/>
</g>
<g id="OBJECTS">
	<g>
		<g>
			<g>
				<g>
					
						<text transform="matrix(1 0 0 1 121.8315 343.5557)" style="fill:#37474F; font-family:'Montserrat-ExtraBold'; font-size:26.193px; letter-spacing:5;">code symbol</text>
				</g>
				
					<text transform="matrix(1 0 0 1 181.563 365.624)" style="fill:#546E7A; font-family:'Montserrat-Regular'; font-size:14.6681px; letter-spacing:2;">slogan here</text>
			</g>
			<g>
				<g>
					
						<linearGradient id="SVGID_00000007405833492104077810000005619750658096093091_" gradientUnits="userSpaceOnUse" x1="135.5273" y1="225.2889" x2="198.8707" y2="161.9455" gradientTransform="matrix(0.7071 0.7071 -0.7071 0.7071 213.7348 -91.609)">
						<stop  offset="0" style="stop-color:#651FFF"/>
						<stop  offset="1" style="stop-color:#18FFFF"/>
					</linearGradient>
					<path style="fill:url(#SVGID_00000007405833492104077810000005619750658096093091_);" d="M232.352,182.978
						c0.107-0.118,0.207-0.24,0.312-0.36c0.21-0.239,0.419-0.478,0.62-0.722c0.12-0.146,0.234-0.297,0.351-0.445
						c0.175-0.222,0.351-0.444,0.519-0.671c0.12-0.162,0.234-0.327,0.351-0.49c0.154-0.217,0.309-0.435,0.457-0.655
						c0.116-0.174,0.227-0.35,0.34-0.525c0.138-0.216,0.275-0.432,0.406-0.65c0.11-0.182,0.215-0.366,0.321-0.55
						c0.123-0.215,0.245-0.432,0.362-0.649c0.102-0.191,0.202-0.382,0.3-0.575c0.11-0.215,0.217-0.432,0.321-0.649
						c0.095-0.198,0.187-0.396,0.277-0.596c0.097-0.215,0.19-0.431,0.281-0.647c0.087-0.206,0.172-0.411,0.254-0.619
						c0.084-0.213,0.163-0.427,0.242-0.641c0.079-0.214,0.157-0.427,0.23-0.642c0.071-0.209,0.137-0.419,0.203-0.629
						c0.07-0.223,0.141-0.445,0.206-0.669c0.058-0.201,0.11-0.404,0.163-0.606c0.063-0.236,0.127-0.471,0.184-0.708
						c0.043-0.181,0.079-0.362,0.119-0.543c0.057-0.26,0.116-0.521,0.166-0.782c0.022-0.115,0.038-0.231,0.059-0.347
						c0.198-1.119,0.332-2.247,0.398-3.379c0.003-0.057,0.009-0.113,0.012-0.17c0.018-0.337,0.025-0.674,0.031-1.01
						c0.002-0.106,0.007-0.212,0.008-0.319c0.002-0.324-0.005-0.647-0.013-0.971c-0.003-0.118-0.004-0.237-0.008-0.355
						c-0.012-0.32-0.033-0.639-0.056-0.959c-0.009-0.121-0.016-0.241-0.026-0.362c-0.027-0.32-0.061-0.639-0.098-0.957
						c-0.014-0.119-0.027-0.238-0.043-0.357c-0.042-0.321-0.09-0.642-0.142-0.962c-0.019-0.113-0.037-0.226-0.057-0.339
						c-0.057-0.326-0.12-0.651-0.189-0.975c-0.022-0.104-0.045-0.207-0.068-0.311c-0.074-0.332-0.153-0.663-0.239-0.993
						c-0.024-0.09-0.049-0.18-0.073-0.27c-0.093-0.342-0.19-0.683-0.296-1.022c-0.022-0.07-0.045-0.14-0.068-0.21
						c-0.115-0.358-0.234-0.716-0.363-1.07c-0.013-0.036-0.027-0.072-0.041-0.107c-1.045-2.843-2.548-5.555-4.513-8.021
						c-0.678-0.851-1.405-1.675-2.192-2.462v0c-11.322-11.322-29.677-11.322-40.999,0l-40.095,40.095
						c11.715-8.483,19.951-9.287,30.208-4.586c5.036,2.309,8.582,4.709,12.421,7.748c11.379,9.006,27.953,8.254,38.464-2.257
						c0,0,0,0,0-0.001C231.7,183.681,232.031,183.332,232.352,182.978z"/>
					<g>
						
							<linearGradient id="SVGID_00000067933906071513884150000009540033029074183048_" gradientUnits="userSpaceOnUse" x1="127.8531" y1="221.2152" x2="220.3675" y2="170.4815">
							<stop  offset="0" style="stop-color:#18FFFF"/>
							<stop  offset="1" style="stop-color:#651FFF"/>
						</linearGradient>
						<path style="fill:url(#SVGID_00000067933906071513884150000009540033029074183048_);" d="M192.894,186.281
							c-3.839-3.038-7.384-5.439-12.421-7.748c-10.257-4.701-18.493-3.897-30.208,4.586l40.095-40.095
							c1.415-1.415,2.94-2.654,4.548-3.715c-1.608,1.061-3.133,2.3-4.548,3.715l-53.661,53.661
							c-11.321,11.322-11.321,29.677,0,40.999l0,0c11.322,11.322,29.677,11.322,40.999,0l53.66-53.66
							C220.847,194.535,204.273,195.287,192.894,186.281z"/>
					</g>
					
						<linearGradient id="SVGID_00000073716877715685432460000009948254224241283004_" gradientUnits="userSpaceOnUse" x1="247.4665" y1="348.7282" x2="310.8099" y2="285.3848" gradientTransform="matrix(0.7071 -0.7071 -0.7071 -0.7071 221.8665 692.4143)">
						<stop  offset="0" style="stop-color:#18FFFF"/>
						<stop  offset="1" style="stop-color:#651FFF"/>
					</linearGradient>
					<path style="fill:url(#SVGID_00000073716877715685432460000009948254224241283004_);" d="M232.352,251.391
						c0.107,0.118,0.207,0.24,0.312,0.36c0.21,0.239,0.419,0.478,0.62,0.722c0.12,0.146,0.234,0.297,0.351,0.445
						c0.175,0.222,0.351,0.445,0.519,0.671c0.12,0.162,0.234,0.327,0.351,0.49c0.154,0.217,0.309,0.435,0.457,0.655
						c0.116,0.174,0.227,0.35,0.34,0.525c0.138,0.216,0.275,0.432,0.406,0.65c0.11,0.182,0.215,0.366,0.321,0.55
						c0.123,0.215,0.245,0.432,0.362,0.649c0.103,0.191,0.202,0.382,0.3,0.575c0.11,0.215,0.217,0.432,0.321,0.649
						c0.095,0.198,0.187,0.396,0.277,0.596c0.097,0.215,0.19,0.431,0.281,0.647c0.087,0.206,0.172,0.411,0.254,0.619
						c0.084,0.213,0.163,0.427,0.242,0.641c0.079,0.214,0.157,0.427,0.23,0.643c0.071,0.209,0.137,0.419,0.203,0.629
						c0.07,0.223,0.141,0.445,0.206,0.669c0.058,0.201,0.11,0.404,0.163,0.606c0.063,0.236,0.127,0.471,0.184,0.708
						c0.043,0.181,0.079,0.362,0.119,0.543c0.057,0.26,0.116,0.521,0.166,0.782c0.022,0.115,0.038,0.231,0.059,0.347
						c0.198,1.119,0.332,2.247,0.398,3.379c0.003,0.057,0.009,0.113,0.012,0.17c0.018,0.336,0.025,0.673,0.031,1.01
						c0.002,0.106,0.007,0.212,0.008,0.319c0.002,0.324-0.005,0.647-0.013,0.971c-0.003,0.118-0.004,0.237-0.008,0.355
						c-0.012,0.32-0.033,0.64-0.056,0.959c-0.009,0.121-0.016,0.241-0.026,0.362c-0.027,0.32-0.061,0.639-0.098,0.957
						c-0.014,0.119-0.027,0.238-0.043,0.357c-0.042,0.321-0.09,0.642-0.142,0.962c-0.019,0.113-0.037,0.226-0.057,0.339
						c-0.057,0.326-0.12,0.651-0.189,0.975c-0.022,0.104-0.045,0.207-0.068,0.311c-0.074,0.332-0.153,0.664-0.239,0.993
						c-0.024,0.09-0.049,0.18-0.073,0.271c-0.093,0.342-0.19,0.683-0.296,1.022c-0.022,0.07-0.045,0.14-0.068,0.21
						c-0.115,0.359-0.234,0.716-0.363,1.071c-0.013,0.036-0.027,0.071-0.041,0.107c-1.045,2.843-2.548,5.555-4.513,8.021
						c-0.678,0.851-1.405,1.675-2.192,2.463l0,0c-11.322,11.322-29.677,11.322-40.999,0l-40.095-40.095
						c11.715,8.483,19.951,9.287,30.208,4.586c5.036-2.308,8.582-4.709,12.421-7.748c11.379-9.006,27.953-8.253,38.464,2.258
						c0,0,0,0,0,0C231.7,250.688,232.031,251.037,232.352,251.391z"/>
					<g>
						
							<linearGradient id="SVGID_00000137825482579767987770000004141968619121672381_" gradientUnits="userSpaceOnUse" x1="128.2074" y1="223.4448" x2="232.6644" y2="223.4448">
							<stop  offset="0" style="stop-color:#651FFF"/>
							<stop  offset="1" style="stop-color:#18FFFF"/>
						</linearGradient>
						<path style="fill:url(#SVGID_00000137825482579767987770000004141968619121672381_);" d="M180.473,255.836
							c5.036-2.309,8.582-4.709,12.421-7.748c11.379-9.006,27.953-8.253,38.464,2.258c0,0,0,0,0,0
							c0.342,0.342,0.672,0.691,0.994,1.045c0.107,0.118,0.207,0.24,0.312,0.36c-0.419-0.478-0.85-0.949-1.306-1.406l-53.66-53.661
							c-11.322-11.322-29.677-11.322-40.999,0l0,0c-11.321,11.322-11.321,29.677,0,40.999l13.566,13.566
							C161.98,259.733,170.215,260.537,180.473,255.836z"/>
					</g>
				</g>
				<g>
					
						<linearGradient id="SVGID_00000183947097508248828030000003760355520762035856_" gradientUnits="userSpaceOnUse" x1="343.7885" y1="109.8446" x2="407.1319" y2="46.5012" gradientTransform="matrix(-0.7071 -0.7071 0.7071 -0.7071 508.4892 591.609)">
						<stop  offset="0" style="stop-color:#651FFF"/>
						<stop  offset="1" style="stop-color:#18FFFF"/>
					</linearGradient>
					<path style="fill:url(#SVGID_00000183947097508248828030000003760355520762035856_);" d="M260.98,251.391
						c-0.107,0.118-0.208,0.24-0.312,0.36c-0.21,0.239-0.419,0.478-0.62,0.722c-0.12,0.146-0.234,0.297-0.351,0.445
						c-0.175,0.222-0.351,0.445-0.519,0.671c-0.12,0.162-0.234,0.327-0.351,0.49c-0.154,0.217-0.309,0.435-0.457,0.655
						c-0.116,0.174-0.228,0.35-0.34,0.525c-0.138,0.216-0.275,0.432-0.406,0.65c-0.11,0.182-0.215,0.366-0.321,0.55
						c-0.123,0.215-0.245,0.432-0.362,0.649c-0.103,0.191-0.202,0.382-0.3,0.575c-0.11,0.215-0.217,0.432-0.321,0.649
						c-0.095,0.198-0.187,0.396-0.277,0.596c-0.097,0.215-0.19,0.431-0.281,0.647c-0.087,0.206-0.172,0.411-0.254,0.619
						c-0.084,0.213-0.163,0.427-0.242,0.641c-0.078,0.214-0.157,0.427-0.23,0.643c-0.071,0.209-0.137,0.419-0.203,0.629
						c-0.07,0.223-0.141,0.445-0.206,0.669c-0.058,0.201-0.11,0.404-0.164,0.606c-0.062,0.236-0.127,0.471-0.183,0.708
						c-0.043,0.181-0.079,0.362-0.119,0.543c-0.057,0.26-0.116,0.521-0.166,0.782c-0.022,0.115-0.038,0.231-0.059,0.347
						c-0.198,1.119-0.333,2.247-0.398,3.379c-0.003,0.057-0.009,0.113-0.012,0.17c-0.018,0.336-0.025,0.673-0.031,1.01
						c-0.002,0.106-0.007,0.212-0.008,0.319c-0.002,0.324,0.005,0.647,0.013,0.971c0.003,0.118,0.004,0.237,0.008,0.355
						c0.012,0.32,0.033,0.64,0.056,0.959c0.009,0.121,0.016,0.241,0.026,0.362c0.027,0.32,0.061,0.639,0.099,0.957
						c0.014,0.119,0.027,0.238,0.043,0.357c0.042,0.321,0.09,0.642,0.143,0.962c0.018,0.113,0.037,0.226,0.057,0.339
						c0.057,0.326,0.12,0.651,0.189,0.975c0.022,0.104,0.045,0.207,0.068,0.311c0.074,0.332,0.154,0.664,0.24,0.993
						c0.023,0.09,0.048,0.18,0.073,0.271c0.093,0.342,0.19,0.683,0.296,1.022c0.022,0.07,0.045,0.14,0.068,0.21
						c0.114,0.359,0.234,0.716,0.363,1.071c0.013,0.036,0.027,0.071,0.041,0.107c1.045,2.843,2.548,5.555,4.513,8.021
						c0.678,0.851,1.405,1.675,2.192,2.463l0,0c11.322,11.322,29.678,11.322,40.999,0l40.095-40.095
						c-11.715,8.483-19.951,9.287-30.208,4.586c-5.036-2.308-8.582-4.709-12.421-7.748c-11.379-9.006-27.953-8.253-38.465,2.258
						c0,0,0,0,0,0C261.632,250.688,261.301,251.037,260.98,251.391z"/>
					<g>
						
							<linearGradient id="SVGID_00000134215498722803520000000017927959087226287771_" gradientUnits="userSpaceOnUse" x1="356.7452" y1="286.846" x2="449.2596" y2="236.1124" gradientTransform="matrix(-1 0 0 -1 722.224 500)">
							<stop  offset="0" style="stop-color:#18FFFF"/>
							<stop  offset="1" style="stop-color:#651FFF"/>
						</linearGradient>
						<path style="fill:url(#SVGID_00000134215498722803520000000017927959087226287771_);" d="M300.438,248.088
							c3.839,3.038,7.384,5.439,12.421,7.748c10.257,4.701,18.493,3.897,30.208-4.586l-40.095,40.095
							c-1.415,1.415-2.94,2.653-4.548,3.715c1.608-1.061,3.133-2.3,4.548-3.715l53.66-53.66c11.322-11.322,11.322-29.677,0-40.999
							l0,0c-11.322-11.322-29.677-11.322-40.999,0l-53.661,53.66C272.485,239.835,289.059,239.082,300.438,248.088z"/>
					</g>
					
						<linearGradient id="SVGID_00000086656155373005026220000018214695730324313532_" gradientUnits="userSpaceOnUse" x1="362.9108" y1="140.467" x2="426.2542" y2="77.1236" gradientTransform="matrix(-0.7071 0.7071 0.7071 0.7071 500.3575 -192.4143)">
						<stop  offset="0" style="stop-color:#18FFFF"/>
						<stop  offset="1" style="stop-color:#651FFF"/>
					</linearGradient>
					<path style="fill:url(#SVGID_00000086656155373005026220000018214695730324313532_);" d="M260.98,182.978
						c-0.107-0.118-0.208-0.24-0.312-0.36c-0.21-0.239-0.419-0.478-0.62-0.722c-0.12-0.146-0.234-0.297-0.351-0.445
						c-0.175-0.222-0.351-0.444-0.519-0.671c-0.12-0.162-0.234-0.327-0.351-0.49c-0.154-0.217-0.309-0.435-0.457-0.655
						c-0.116-0.174-0.228-0.35-0.34-0.525c-0.138-0.216-0.275-0.432-0.406-0.65c-0.11-0.182-0.215-0.366-0.321-0.55
						c-0.123-0.215-0.245-0.432-0.362-0.649c-0.103-0.191-0.202-0.382-0.3-0.575c-0.11-0.215-0.217-0.432-0.321-0.649
						c-0.095-0.198-0.187-0.396-0.277-0.596c-0.097-0.215-0.19-0.431-0.281-0.647c-0.087-0.206-0.172-0.411-0.254-0.619
						c-0.084-0.213-0.163-0.427-0.242-0.641c-0.078-0.214-0.157-0.427-0.23-0.642c-0.071-0.209-0.137-0.419-0.203-0.629
						c-0.07-0.223-0.141-0.445-0.206-0.669c-0.058-0.201-0.11-0.404-0.164-0.606c-0.062-0.236-0.127-0.471-0.183-0.708
						c-0.043-0.181-0.079-0.362-0.119-0.543c-0.057-0.26-0.116-0.521-0.166-0.782c-0.022-0.115-0.038-0.231-0.059-0.347
						c-0.198-1.119-0.333-2.247-0.398-3.379c-0.003-0.057-0.009-0.113-0.012-0.17c-0.018-0.337-0.025-0.674-0.031-1.01
						c-0.002-0.106-0.007-0.212-0.008-0.319c-0.002-0.324,0.005-0.647,0.013-0.971c0.003-0.118,0.004-0.237,0.008-0.355
						c0.012-0.32,0.033-0.639,0.056-0.959c0.009-0.121,0.016-0.241,0.026-0.362c0.027-0.32,0.061-0.639,0.099-0.957
						c0.014-0.119,0.027-0.238,0.043-0.357c0.042-0.321,0.09-0.642,0.143-0.962c0.018-0.113,0.037-0.226,0.057-0.339
						c0.057-0.326,0.12-0.651,0.189-0.975c0.022-0.104,0.045-0.207,0.068-0.311c0.074-0.332,0.154-0.663,0.24-0.993
						c0.023-0.09,0.048-0.18,0.073-0.27c0.093-0.342,0.19-0.683,0.296-1.022c0.022-0.07,0.045-0.14,0.068-0.21
						c0.114-0.358,0.234-0.716,0.363-1.07c0.013-0.036,0.027-0.072,0.041-0.107c1.045-2.843,2.548-5.555,4.513-8.021
						c0.678-0.851,1.405-1.675,2.192-2.462v0c11.322-11.322,29.678-11.322,40.999,0l40.095,40.095
						c-11.715-8.483-19.951-9.287-30.208-4.586c-5.036,2.309-8.582,4.709-12.421,7.748c-11.379,9.006-27.953,8.254-38.464-2.257
						c0,0,0,0,0-0.001C261.632,183.681,261.301,183.332,260.98,182.978z"/>
					<g>
						
							<linearGradient id="SVGID_00000020395563961914626090000011117577911681850288_" gradientUnits="userSpaceOnUse" x1="357.0995" y1="289.0757" x2="461.5565" y2="289.0757" gradientTransform="matrix(-1 0 0 -1 722.224 500)">
							<stop  offset="0" style="stop-color:#651FFF"/>
							<stop  offset="1" style="stop-color:#18FFFF"/>
						</linearGradient>
						<path style="fill:url(#SVGID_00000020395563961914626090000011117577911681850288_);" d="M312.859,178.533
							c-5.036,2.309-8.582,4.709-12.421,7.748c-11.379,9.006-27.953,8.254-38.464-2.257c0,0,0,0,0-0.001
							c-0.342-0.342-0.672-0.691-0.994-1.045c-0.107-0.118-0.207-0.24-0.312-0.36c0.419,0.478,0.85,0.949,1.306,1.405l53.661,53.66
							c11.322,11.322,29.677,11.322,40.999,0l0,0c11.322-11.322,11.322-29.677,0-40.999l-13.566-13.566
							C331.352,174.637,323.116,173.832,312.859,178.533z"/>
					</g>
				</g>
			</g>
		</g>
		
			<radialGradient id="SVGID_00000032642238618274084590000003308454414804902317_" cx="254.0064" cy="386.7484" r="58.5686" gradientTransform="matrix(2.4699 0 0 0.3776 -377.3704 276.9638)" gradientUnits="userSpaceOnUse">
			<stop  offset="0" style="stop-color:#B0BEC5"/>
			<stop  offset="0.2098" style="stop-color:#C8D1D6"/>
			<stop  offset="0.531" style="stop-color:#E6EAED"/>
			<stop  offset="0.8058" style="stop-color:#F8FAFA"/>
			<stop  offset="1" style="stop-color:#FFFFFF"/>
		</radialGradient>
		
			<ellipse style="fill:url(#SVGID_00000032642238618274084590000003308454414804902317_);" cx="250" cy="423" rx="144.667" ry="22.114"/>
	</g>
</g>
</svg>
